<svg width="14" height="16" viewBox="0 0 14 16" fill="none" xmlns="http://www.w3.org/2000/svg">
<path d="M6.99902 7.5686C7.23709 7.5686 7.43066 7.76218 7.43066 8.00024V14.7502C7.43066 14.9883 7.23709 15.1819 6.99902 15.1819C6.76096 15.1819 6.56738 14.9883 6.56738 14.7502V8.00024C6.56738 7.76218 6.76096 7.5686 6.99902 7.5686Z" fill="#22242B" stroke="#22242B" stroke-width="0.1125"/>
<path d="M10.376 14.3191C10.614 14.3191 10.8076 14.5127 10.8076 14.7507C10.8076 14.9888 10.614 15.1824 10.376 15.1824H4.00098C3.76291 15.1824 3.56934 14.9888 3.56934 14.7507C3.56934 14.5127 3.76291 14.3191 4.00098 14.3191H10.376Z" fill="#22242B" stroke="#22242B" stroke-width="0.1125"/>
<path d="M12.624 3.06909C12.8621 3.06909 13.0557 3.26267 13.0557 3.50073C13.0557 3.7388 12.8621 3.93237 12.624 3.93237H1.37402C1.13596 3.93237 0.942383 3.7388 0.942383 3.50073C0.942383 3.26267 1.13596 3.06909 1.37402 3.06909H12.624Z" fill="#22242B" stroke="#22242B" stroke-width="0.1125"/>
<path d="M12.998 0.819336C13.2361 0.819336 13.4297 1.01291 13.4297 1.25098V2.00098C13.4297 5.54729 10.5444 8.43262 6.99805 8.43262C3.45173 8.43262 0.566406 5.54729 0.566406 2.00098V1.25098C0.566406 1.01291 0.759981 0.819336 0.998047 0.819336H12.998ZM1.42969 2.00098C1.42969 5.07191 3.92711 7.56934 6.99805 7.56934C10.069 7.56934 12.5664 5.07191 12.5664 2.00098V1.68262H1.42969V2.00098Z" fill="#22242B" stroke="#22242B" stroke-width="0.1125"/>
</svg>
