<svg width="14" height="20" viewBox="0 0 14 20" fill="none" xmlns="http://www.w3.org/2000/svg">
<path d="M0.75 12.9737C1.52731 13.6488 2.43725 14.154 3.42137 14.4565C4.40549 14.7591 5.44203 14.8525 6.46438 14.7307C7.48674 14.6089 8.47232 14.2746 9.35779 13.7492C10.2433 13.2239 11.0091 12.5191 11.606 11.6802C12.2029 10.8413 12.6177 9.88683 12.8238 8.87808C13.0299 7.86933 13.0227 6.82862 12.8027 5.82281C12.5827 4.817 12.1547 3.86834 11.5463 3.03777C10.9378 2.20719 10.1624 1.51307 9.26974 1M5.58553 14.8158V18.5M1.90132 18.5H9.26974M1.90132 7.44737C1.90132 8.42448 2.28947 9.36158 2.9804 10.0525C3.67132 10.7434 4.60841 11.1316 5.58553 11.1316C6.56264 11.1316 7.49973 10.7434 8.19066 10.0525C8.88158 9.36158 9.26974 8.42448 9.26974 7.44737C9.26974 6.47026 8.88158 5.53316 8.19066 4.84224C7.49973 4.15131 6.56264 3.76316 5.58553 3.76316C4.60841 3.76316 3.67132 4.15131 2.9804 4.84224C2.28947 5.53316 1.90132 6.47026 1.90132 7.44737Z" stroke="#22242B" stroke-width="1.19737" stroke-linecap="round" stroke-linejoin="round"/>
</svg>
