<svg width="20" height="14" viewBox="0 0 20 14" fill="none" xmlns="http://www.w3.org/2000/svg">
<path d="M8.125 7C8.125 7.49728 8.32254 7.97419 8.67418 8.32582C9.02581 8.67746 9.50272 8.875 10 8.875C10.4973 8.875 10.9742 8.67746 11.3258 8.32582C11.6775 7.97419 11.875 7.49728 11.875 7C11.875 6.50272 11.6775 6.02581 11.3258 5.67418C10.9742 5.32254 10.4973 5.125 10 5.125C9.50272 5.125 9.02581 5.32254 8.67418 5.67418C8.32254 6.02581 8.125 6.50272 8.125 7Z" stroke="#354052" stroke-width="1.25" stroke-linecap="round" stroke-linejoin="round"/>
<path d="M18.4375 7C16.1875 10.75 13.375 12.625 10 12.625C6.625 12.625 3.8125 10.75 1.5625 7C3.8125 3.25 6.625 1.375 10 1.375C13.375 1.375 16.1875 3.25 18.4375 7Z" stroke="#354052" stroke-width="1.25" stroke-linecap="round" stroke-linejoin="round"/>
</svg>
