<svg width="24" height="25" viewBox="0 0 24 25" fill="none" xmlns="http://www.w3.org/2000/svg">
<path d="M8.67957 13.2201H10.4196V17.2701C10.4196 17.8701 11.1596 18.1501 11.5596 17.7001L15.8196 12.8601C16.1896 12.4401 15.8896 11.7801 15.3296 11.7801H13.5896V7.73008C13.5896 7.13008 12.8496 6.85008 12.4496 7.30008L8.18957 12.1401C7.81957 12.5601 8.11957 13.2201 8.67957 13.2201Z" stroke="#5E1053" stroke-width="1.5" stroke-miterlimit="10" stroke-linecap="round" stroke-linejoin="round"/>
<path d="M11.9697 22.5C17.4926 22.5 21.9697 18.0228 21.9697 12.5C21.9697 6.97715 17.4926 2.5 11.9697 2.5C6.44688 2.5 1.96973 6.97715 1.96973 12.5C1.96973 18.0228 6.44688 22.5 11.9697 22.5Z" stroke="#5E1053" stroke-width="1.5" stroke-miterlimit="10" stroke-linecap="round" stroke-linejoin="round"/>
</svg>
