<svg width="13" height="16" viewBox="0 0 13 16" fill="none" xmlns="http://www.w3.org/2000/svg">
<path d="M4.25 4.25H8.75M4.25 7.25H8.75M4.25 10.25H7.25M1.25 2.75C1.25 2.35218 1.40804 1.97064 1.68934 1.68934C1.97064 1.40804 2.35218 1.25 2.75 1.25H10.25C10.6478 1.25 11.0294 1.40804 11.3107 1.68934C11.592 1.97064 11.75 2.35218 11.75 2.75V13.25C11.75 13.6478 11.592 14.0294 11.3107 14.3107C11.0294 14.592 10.6478 14.75 10.25 14.75H2.75C2.35218 14.75 1.97064 14.592 1.68934 14.3107C1.40804 14.0294 1.25 13.6478 1.25 13.25V2.75Z" stroke="#FFF8FE" stroke-width="1.08" stroke-linecap="round" stroke-linejoin="round"/>
</svg>
