<svg width="20" height="20" viewBox="0 0 20 20" fill="none" xmlns="http://www.w3.org/2000/svg">
<g clip-path="url(#clip0_49_156)">
<path d="M2.5 6.42857L5.17857 3.75L7.85714 6.42857" fill="#22242B"/>
<path d="M2.5 13.5714L5.17857 16.25L7.85714 13.5714" fill="#22242B"/>
<path d="M5.17857 3.75V16.25V3.75Z" fill="#22242B"/>
<path d="M11.4286 4.64286H17.6786H11.4286Z" fill="#22242B"/>
<path d="M11.4286 10H17.6786H11.4286Z" fill="#22242B"/>
<path d="M11.4286 15.3571H17.6786H11.4286Z" fill="#22242B"/>
<path d="M2.5 6.42857L5.17857 3.75M5.17857 3.75L7.85714 6.42857M5.17857 3.75V16.25M2.5 13.5714L5.17857 16.25M5.17857 16.25L7.85714 13.5714M11.4286 4.64286H17.6786M11.4286 10H17.6786M11.4286 15.3571H17.6786" stroke="#22242B" stroke-width="1.2" stroke-linecap="round" stroke-linejoin="round"/>
</g>
<defs>
<clipPath id="clip0_49_156">
<rect width="20" height="20" fill="white"/>
</clipPath>
</defs>
</svg>
