<svg width="18" height="18" viewBox="0 0 18 18" fill="none" xmlns="http://www.w3.org/2000/svg">
<path d="M10.4424 1.92471L11.9091 4.85804C12.1091 5.26637 12.6424 5.65804 13.0924 5.73304L15.7507 6.17471C17.4507 6.45804 17.8507 7.69137 16.6257 8.90804L14.5591 10.9747C14.2091 11.3247 14.0174 11.9997 14.1257 12.483L14.7174 15.0414C15.1841 17.0664 14.1091 17.8497 12.3174 16.7914L9.82574 15.3164C9.37574 15.0497 8.63407 15.0497 8.17574 15.3164L5.68407 16.7914C3.90074 17.8497 2.81741 17.058 3.28407 15.0414L3.87574 12.483C3.98407 11.9997 3.79241 11.3247 3.44241 10.9747L1.37574 8.90804C0.159072 7.69137 0.550739 6.45804 2.25074 6.17471L4.90907 5.73304C5.35074 5.65804 5.88407 5.26637 6.08407 4.85804L7.55074 1.92471C8.35074 0.33304 9.65074 0.33304 10.4424 1.92471Z" stroke="#22242B" stroke-width="1.2" stroke-linecap="round" stroke-linejoin="round"/>
</svg>
