<svg width="18" height="15" viewBox="0 0 18 15" fill="none" xmlns="http://www.w3.org/2000/svg">
<path d="M14.3629 0.262695C16.3136 0.262695 17.901 1.84914 17.901 3.7998V4.11816C17.9009 4.71385 17.6827 5.28734 17.2877 5.7334L9.89902 14.0762C9.67132 14.3332 9.34389 14.4805 9.00059 14.4805C8.65727 14.4804 8.32979 14.3331 8.10215 14.0762L0.713478 5.7334C0.318579 5.2875 0.101285 4.71389 0.101173 4.11816V3.7998C0.101173 1.84914 1.68762 0.262695 3.63828 0.262695H14.3629ZM0.922462 4.58691C0.991255 4.82511 1.10809 5.04784 1.275 5.23633L8.26035 13.124L5.29649 4.58691H0.922462ZM9.74082 13.123L16.7262 5.23633C16.8932 5.04774 17.0109 4.82527 17.0797 4.58691H12.7047L9.74082 13.123ZM9.00059 12.9707L11.9117 4.58691H6.09043L9.00059 12.9707ZM13.3434 3.83691H17.151V3.7998C17.151 2.7797 16.5987 1.88736 15.7779 1.40137L13.3434 3.83691ZM6.44395 3.83691H11.5572L9.00059 1.17773L6.44395 3.83691ZM2.22227 1.40137C1.40207 1.88749 0.851173 2.78011 0.851173 3.7998V3.83691H4.65781L2.22227 1.40137ZM12.443 3.67676L15.027 1.09277C14.8142 1.04057 14.5916 1.01182 14.3629 1.01172H9.88047L12.443 3.67676ZM3.63828 1.0127C3.40943 1.0127 3.18711 1.04052 2.97422 1.09277L5.55723 3.67578L8.11973 1.0127H3.63828Z" fill="#22242B" stroke="#22242B" stroke-width="0.2"/>
</svg>
