<svg width="20" height="20" viewBox="0 0 20 20" fill="none" xmlns="http://www.w3.org/2000/svg">
<path d="M17.909 9.99969C18.1756 9.14969 18.334 8.23303 18.334 7.24136C18.334 4.66636 16.259 2.58301 13.7007 2.58301C12.184 2.58301 10.8423 3.31638 10.0006 4.44972C9.15898 3.31638 7.80898 2.58301 6.30065 2.58301C3.74231 2.58301 1.66732 4.66636 1.66732 7.24136C1.66732 13.0747 7.06731 16.5164 9.48398 17.3497C9.62565 17.3997 9.80898 17.4247 10.0006 17.4247" stroke="#22242B" stroke-width="1.2" stroke-linecap="round" stroke-linejoin="round"/>
<path d="M14.7832 17.5C16.256 17.5 17.4499 16.3061 17.4499 14.8333C17.4499 13.3605 16.256 12.1666 14.7832 12.1666C13.3104 12.1666 12.1165 13.3605 12.1165 14.8333C12.1165 16.3061 13.3104 17.5 14.7832 17.5Z" stroke="#22242B" stroke-width="1.2" stroke-linecap="round" stroke-linejoin="round"/>
<path d="M17.9499 18L17.1165 17.1666" stroke="#22242B" stroke-width="1.2" stroke-linecap="round" stroke-linejoin="round"/>
</svg>
