<svg width="16" height="16" viewBox="0 0 16 16" fill="none" xmlns="http://www.w3.org/2000/svg">
<mask id="mask0_49_273" style="mask-type:luminance" maskUnits="userSpaceOnUse" x="0" y="0" width="16" height="16">
<path d="M15.4844 15.4844V0.515625H0.515625V15.4844H15.4844Z" fill="white" stroke="white" stroke-width="0.0316406"/>
</mask>
<g mask="url(#mask0_49_273)">
<path d="M10.4056 13.8284C10.4056 13.8284 9.52287 13.6585 8.8501 12.6929C8.11923 11.6437 8.01367 10.3948 8.01367 10.3948C8.01367 10.3948 9.14726 10.9247 9.87812 11.9738C10.5509 12.9395 10.4056 13.8284 10.4056 13.8284Z" stroke="#22242B" stroke-width="0.474609" stroke-miterlimit="10" stroke-linecap="round" stroke-linejoin="round"/>
<path d="M8.01478 0.718897C8.01478 0.718897 9.15159 2.21075 9.15159 4.93231C9.15159 7.88904 8.01478 10.3955 8.01478 10.3955C8.01478 10.3955 6.878 7.88904 6.878 4.93231C6.878 2.21075 8.01478 0.718897 8.01478 0.718897Z" stroke="#22242B" stroke-width="0.474609" stroke-miterlimit="10" stroke-linecap="round" stroke-linejoin="round"/>
<path d="M13.9545 4.4466C13.9545 4.4466 13.738 6.06402 12.0682 7.73714C10.2542 9.55486 8.01749 10.3955 8.01749 10.3955C8.01749 10.3955 8.85643 8.15433 10.6705 6.3366C12.3403 4.66349 13.9545 4.4466 13.9545 4.4466Z" stroke="#22242B" stroke-width="0.474609" stroke-miterlimit="10" stroke-linecap="round" stroke-linejoin="round"/>
<path d="M13.4897 11.116C14.6576 10.8725 15.2829 10.3946 15.2829 10.3946C15.2829 10.3946 14.1581 9.53408 12.1062 9.53408C9.87701 9.53408 7.9873 10.3946 7.9873 10.3946C7.9873 10.3946 9.87701 11.2551 12.1062 11.2551C12.1853 11.2551 12.2624 11.2534 12.3386 11.251C12.3386 11.2507 12.3386 11.2505 12.3386 11.2502" stroke="#22242B" stroke-width="0.474609" stroke-miterlimit="10" stroke-linecap="round" stroke-linejoin="round"/>
<path d="M0.72168 10.3946C0.72168 10.3946 1.84647 9.53411 3.89834 9.53411C6.12757 9.53411 8.01727 10.3946 8.01727 10.3946C8.01727 10.3946 6.12757 11.2551 3.89834 11.2551C1.84647 11.2551 0.72168 10.3946 0.72168 10.3946Z" stroke="#22242B" stroke-width="0.474609" stroke-miterlimit="10" stroke-linecap="round" stroke-linejoin="round"/>
<path d="M5.62454 13.8284C5.62454 13.8284 6.50731 13.6585 7.18009 12.6929C7.91096 11.6437 8.01651 10.3948 8.01651 10.3948C8.01651 10.3948 6.88293 10.9247 6.15203 11.9738C5.47929 12.9395 5.62454 13.8284 5.62454 13.8284Z" stroke="#22242B" stroke-width="0.474609" stroke-miterlimit="10" stroke-linecap="round" stroke-linejoin="round"/>
<path d="M3.69799 7.46299C3.78099 7.55413 3.86794 7.64568 3.95949 7.73741C5.77355 9.55514 8.01022 10.3958 8.01022 10.3958C8.01022 10.3958 7.17131 8.1546 5.35722 6.33688C3.68744 4.66376 2.07324 4.44688 2.07324 4.44688C2.07324 4.44688 2.19957 5.39003 3.00271 6.58089" stroke="#22242B" stroke-width="0.474609" stroke-miterlimit="10" stroke-linecap="round" stroke-linejoin="round"/>
<path d="M8.01367 10.3946L8.01575 15.2786" stroke="#22242B" stroke-width="0.474609" stroke-miterlimit="10" stroke-linecap="round" stroke-linejoin="round"/>
</g>
</svg>
