<svg width="24" height="25" viewBox="0 0 24 25" fill="none" xmlns="http://www.w3.org/2000/svg">
<path d="M12.0196 3.40991C8.7096 3.40991 6.0196 6.09991 6.0196 9.40991V12.2999C6.0196 12.9099 5.7596 13.8399 5.4496 14.3599L4.2996 16.2699C3.5896 17.4499 4.0796 18.7599 5.3796 19.1999C9.6896 20.6399 14.3396 20.6399 18.6496 19.1999C19.8596 18.7999 20.3896 17.3699 19.7296 16.2699L18.5796 14.3599C18.2796 13.8399 18.0196 12.9099 18.0196 12.2999V9.40991C18.0196 6.10991 15.3196 3.40991 12.0196 3.40991Z" stroke="#5E1053" stroke-width="1.5" stroke-miterlimit="10" stroke-linecap="round"/>
<path d="M13.87 3.7C13.56 3.61 13.24 3.54 12.91 3.5C11.95 3.38 11.03 3.45 10.17 3.7C10.46 2.96 11.18 2.44 12.02 2.44C12.86 2.44 13.58 2.96 13.87 3.7Z" stroke="#5E1053" stroke-width="1.5" stroke-miterlimit="10" stroke-linecap="round" stroke-linejoin="round"/>
<path d="M15.0195 19.5601C15.0195 21.2101 13.6695 22.5601 12.0195 22.5601C11.1995 22.5601 10.4395 22.2201 9.89953 21.6801C9.35953 21.1401 9.01953 20.3801 9.01953 19.5601" stroke="#5E1053" stroke-width="1.5" stroke-miterlimit="10"/>
</svg>
