<svg width="17" height="17" viewBox="0 0 17 17" fill="none" xmlns="http://www.w3.org/2000/svg">
<path d="M1.66177 0.25C1.37776 0.25 1.14749 0.480273 1.14749 0.764286V15.6786H0.764286C0.480273 15.6786 0.25 15.9086 0.25 16.1929C0.25 16.4771 0.480273 16.7071 0.764286 16.7071H2.55901C2.84302 16.7071 3.0733 16.4771 3.0733 16.1929C3.0733 15.9086 2.84302 15.6786 2.55901 15.6786H2.17606V12.5821C4.46218 13.6887 6.66489 12.9905 9.05413 12.18C11.1138 11.4814 13.0584 10.822 14.9734 11.6467C15.7579 11.985 16.6308 11.4165 16.6308 10.5648V2.44953C16.6308 2.03242 16.4143 1.6447 16.0653 1.43803C13.5566 -0.0473214 11.0997 0.786635 8.72366 1.59247C6.37973 2.38769 4.27812 3.07316 2.17606 1.79251V0.764286C2.17606 0.480273 1.94579 0.25 1.66177 0.25ZM9.05413 2.56655C11.3087 1.80165 13.4396 1.07868 15.541 2.32296C15.5776 2.34456 15.6022 2.39554 15.6022 2.44953V10.5648C15.6022 10.6817 15.4833 10.7463 15.3802 10.7025C13.1036 9.72009 10.8762 10.4759 8.72416 11.2057C7.92138 11.478 7.1341 11.7431 6.35765 11.9177V3.35759C7.26609 3.17101 8.16556 2.86807 9.05413 2.56655ZM5.32907 3.51128V12.0882C4.26428 12.1927 3.21697 12.0463 2.17606 11.4126V2.97034C3.23646 3.48356 4.2882 3.60262 5.32907 3.51128Z" fill="#22242B"/>
</svg>
