<svg width="19" height="13" viewBox="0 0 19 13" fill="none" xmlns="http://www.w3.org/2000/svg">
<path d="M7.08231 1.38291C5.9436 1.15422 4.76125 1.30738 3.71839 1.81866C2.67553 2.32994 1.83035 3.17082 1.31375 4.21105C0.797148 5.25129 0.637952 6.43284 0.860818 7.5727C1.08368 8.71257 1.67617 9.74715 2.54653 10.5162C3.41688 11.2853 4.51653 11.7459 5.67516 11.8267C6.83379 11.9076 7.98675 11.6042 8.95548 10.9634C9.92421 10.3227 10.6546 9.38043 11.0337 8.28256C11.4127 7.18469 11.4191 5.99249 11.052 4.89059M12.0367 11.737C13.1766 11.9668 14.3605 11.8139 15.4046 11.302C16.4487 10.7901 17.2947 9.94782 17.8111 8.90592C18.3275 7.86401 18.4855 6.68077 18.2606 5.53987C18.0356 4.39897 17.4404 3.36424 16.5672 2.59629C15.6939 1.82835 14.5916 1.37015 13.4314 1.29283C12.2711 1.21551 11.1177 1.52339 10.1503 2.16868C9.18293 2.81397 8.45562 3.76057 8.08131 4.86154C7.70699 5.9625 7.70659 7.15625 8.08019 8.25746" stroke="#22242B" stroke-width="1.2" stroke-linecap="round" stroke-linejoin="round"/>
</svg>
