<svg width="18" height="17" viewBox="0 0 18 17" fill="none" xmlns="http://www.w3.org/2000/svg">
<path d="M5.33301 11.5168L6.52476 14.1133" stroke="#22242B" stroke-width="0.6" stroke-miterlimit="10" stroke-linecap="round" stroke-linejoin="round"/>
<path d="M6.26074 11.0908L7.45174 13.6873" stroke="#22242B" stroke-width="0.6" stroke-miterlimit="10" stroke-linecap="round" stroke-linejoin="round"/>
<path d="M15.0303 7.06738L16.222 9.66388" stroke="#22242B" stroke-width="0.6" stroke-miterlimit="10" stroke-linecap="round" stroke-linejoin="round"/>
<path d="M16.8398 7.19788L17.3055 8.21263C17.5058 8.64913 17.3145 9.16588 16.8773 9.36613L2.31979 16.0456C1.88329 16.2459 1.36654 16.0546 1.16629 15.6174L0.70054 14.6026C0.50029 14.1661 0.69154 13.6494 1.12879 13.4491L15.6863 6.76963C16.1228 6.56938 16.6395 6.76063 16.8398 7.19788Z" stroke="#22242B" stroke-width="0.6" stroke-miterlimit="10" stroke-linecap="round" stroke-linejoin="round"/>
<path d="M16.0838 -1.12598C15.5963 -0.507977 15.4088 0.283273 15.4215 1.05952C15.4335 1.83652 15.6818 2.57902 15.8685 3.32527C15.9615 3.69802 16.0343 4.04302 16.008 4.42627C15.9803 4.81927 15.8933 5.20927 15.7538 5.57752" stroke="#22242B" stroke-width="0.6" stroke-miterlimit="10" stroke-linecap="round" stroke-linejoin="round"/>
<path d="M14.4618 2.70825C14.23 3.00225 14.1408 3.37875 14.1468 3.74775C14.1528 4.1175 14.2705 4.47075 14.3598 4.8255C14.404 5.0025 14.4385 5.16675 14.4258 5.349C14.4123 5.53575 14.371 5.72175 14.305 5.8965" stroke="#22242B" stroke-width="0.6" stroke-miterlimit="10" stroke-linecap="round" stroke-linejoin="round"/>
</svg>
