<svg width="24" height="24" viewBox="0 0 24 24" fill="none" xmlns="http://www.w3.org/2000/svg">
<path d="M5.7 3.6C7.4535 2.2875 9.6375 1.5 12 1.5C17.796 1.5 22.5 6.204 22.5 12C22.5 17.796 17.796 22.5 12 22.5C6.204 22.5 1.5 17.796 1.5 12C1.5 10.0995 2.00399 8.31449 2.89649 6.77099L12 12" stroke="#44464B" stroke-width="1.575" stroke-miterlimit="10" stroke-linecap="round" stroke-linejoin="round"/>
<path d="M6.5715 8.808C6.015 9.7425 5.70001 10.8345 5.70001 12C5.70001 15.4755 8.52451 18.3 12 18.3C15.4755 18.3 18.3 15.4755 18.3 12C18.3 8.52451 15.4755 5.70001 12 5.70001C11.0445 5.70001 10.131 5.91002 9.32253 6.29852" stroke="#44464B" stroke-width="1.575" stroke-miterlimit="10" stroke-linecap="round" stroke-linejoin="round"/>
</svg>
