<svg width="23" height="24" viewBox="0 0 23 24" fill="none" xmlns="http://www.w3.org/2000/svg">
<mask id="mask0_49_355" style="mask-type:luminance" maskUnits="userSpaceOnUse" x="0" y="0" width="23" height="24">
<path d="M0 0.5H23V23.5H0V0.5Z" fill="white"/>
</mask>
<g mask="url(#mask0_49_355)">
<path d="M17.6094 22.6021H5.39062C2.90963 22.6021 0.898438 20.5909 0.898438 18.1099V10.7427C0.898438 8.26175 2.90963 6.25055 5.39062 6.25055H17.6094C20.0904 6.25055 22.1016 8.26175 22.1016 10.7427V18.1099C22.1016 20.5909 20.0904 22.6021 17.6094 22.6021Z" stroke="#44464B" stroke-width="1.6" stroke-miterlimit="10" stroke-linecap="round" stroke-linejoin="round"/>
<path d="M8.17578 3.19598C8.17578 2.20361 7.37128 1.39911 6.37891 1.39911C5.38654 1.39911 4.58203 2.20361 4.58203 3.19598" stroke="#44464B" stroke-width="1.725" stroke-miterlimit="10" stroke-linecap="round" stroke-linejoin="round"/>
<path d="M18.5078 3.19598C18.5078 2.20361 17.7033 1.39911 16.7109 1.39911C15.7186 1.39911 14.9141 2.20361 14.9141 3.19598" stroke="#44464B" stroke-width="1.725" stroke-miterlimit="10" stroke-linecap="round" stroke-linejoin="round"/>
<path d="M10.9636 11.3458L10.455 12.3661C10.3314 12.614 10.0924 12.7859 9.81603 12.8256L8.6787 12.9892C7.98264 13.0893 7.7047 13.9361 8.20837 14.4221L9.03134 15.2162C9.23133 15.4092 9.32261 15.6873 9.2754 15.9598L9.08111 17.0811C8.96225 17.7674 9.68989 18.2907 10.3124 17.9667L11.3297 17.4373C11.5769 17.3086 11.8723 17.3086 12.1195 17.4373L13.1367 17.9667C13.7593 18.2907 14.487 17.7674 14.3681 17.0811L14.1738 15.9598C14.1266 15.6873 14.2178 15.4092 14.4179 15.2162L15.2408 14.4221C15.7445 13.9361 15.4666 13.0893 14.7705 12.9892L13.6332 12.8256C13.3568 12.7859 13.1178 12.614 12.9942 12.3661L12.4856 11.3458C12.1743 10.7215 11.2749 10.7215 10.9636 11.3458Z" stroke="#44464B" stroke-width="1.5" stroke-miterlimit="10" stroke-linecap="round" stroke-linejoin="round"/>
</g>
</svg>
