<svg width="25" height="24" viewBox="0 0 25 24" fill="none" xmlns="http://www.w3.org/2000/svg">
<path d="M16.33 12C16.33 13.98 14.73 15.58 12.75 15.58C10.77 15.58 9.16998 13.98 9.16998 12C9.16998 10.02 10.77 8.41998 12.75 8.41998C14.73 8.41998 16.33 10.02 16.33 12Z" stroke="#5E1053" stroke-width="1.5" stroke-linecap="round" stroke-linejoin="round"/>
<path d="M12.7501 21.0977C16.6331 21.0977 20.2521 18.8097 22.7711 14.8497C23.7611 13.2987 23.7611 10.6917 22.7711 9.1407C20.2521 5.1807 16.6331 2.8927 12.7501 2.8927C8.86707 2.8927 5.24807 5.1807 2.72907 9.1407C1.73907 10.6917 1.73907 13.2987 2.72907 14.8497C5.24807 18.8097 8.86707 21.0977 12.7501 21.0977Z" stroke="#5E1053" stroke-width="1.65" stroke-linecap="round" stroke-linejoin="round"/>
</svg>
